<svg width="485" height="106" viewBox="0 0 485 106" fill="none" xmlns="http://www.w3.org/2000/svg">
<path d="M59.9682 98.4744C59.203 103.917 56.286 105.211 50.8058 105.667C42.5853 106.352 22.291 105.214 10.9022 98.9882C4.47995 95.4774 2.59599 91.1959 1.91103 86.2293C1.39978 82.5223 -1.34289 46.7539 1.31164 27.9154C0.562446 35.7933 26.1443 41.4449 48.1512 45.6408C53.5735 46.6746 57.4979 47.6392 58.3412 51.8061C59.6156 58.1031 60.2009 67.2384 60.4059 75.7794C60.6693 86.7507 60.8351 92.3091 59.9682 98.4744Z" fill="#0F172A"/>
<path d="M78.8067 67.218C81.0331 54.6303 79.3205 19.2652 76.2378 5.56439C75.3935 1.81152 71.5282 -0.476418 65.2772 0.0840879C21.349 4.02298 2.37113 19.0939 1.14039 27.8282C-1.51414 46.6668 1.22853 82.4352 1.73978 86.1422C2.42474 91.1087 4.3087 95.3902 10.7309 98.901C-8.19327 85.4571 44.4068 77.7333 60.2347 75.6922C62.6229 75.3842 64.2457 75.1881 64.7634 75.0959C71.0144 73.9827 77.5325 74.4224 78.8067 67.218Z" fill="#89BAFD"/>
<path d="M47.98 45.6408C53.4023 46.6746 57.3266 47.6392 58.1699 51.8061C59.4443 58.1031 60.0296 67.2384 60.2347 75.7793C44.4068 77.8205 -8.19327 85.5443 10.7309 98.9882C4.3087 95.4774 2.42474 91.1959 1.73978 86.2293C1.22853 82.5223 -1.51414 46.7539 1.14039 27.9154C0.391197 35.7933 25.9731 41.4449 47.98 45.6408Z" fill="#0C68FF"/>
<path d="M150.879 9.46476C155.41 9.46476 159.363 10.2405 162.738 11.792C166.112 13.3435 168.692 15.4526 170.475 18.1193C172.259 20.786 173.151 23.7678 173.151 27.0648C173.151 32.4951 171.464 36.7617 168.089 39.8648C164.714 42.9193 158.978 44.4466 150.879 44.4466H141.334V58.4102C141.334 58.9436 141.141 59.4042 140.755 59.792C140.369 60.1799 139.911 60.3739 139.381 60.3739H123.834C123.304 60.3739 122.846 60.1799 122.46 59.792C122.075 59.4042 121.882 58.9436 121.882 58.4102V11.4284C121.882 10.8951 122.075 10.4345 122.46 10.0466C122.846 9.6587 123.304 9.46476 123.834 9.46476H150.879ZM150.59 30.992C151.747 30.992 152.662 30.6526 153.337 29.9739C154.012 29.2466 154.35 28.3011 154.35 27.1375C154.35 25.9254 154.012 24.9314 153.337 24.1557C152.662 23.3799 151.747 22.992 150.59 22.992H141.406V30.992H150.59Z" fill="#0F172A"/>
<path d="M233.286 39.3557C233.286 46.7739 230.827 52.2526 225.91 55.792C221.041 59.3314 214.533 61.1011 206.386 61.1011C198.239 61.1011 191.707 59.3314 186.79 55.792C181.921 52.2526 179.486 46.7254 179.486 39.2102V30.6284C179.486 25.6829 180.643 21.586 182.957 18.3375C185.319 15.0405 188.525 12.6163 192.574 11.0648C196.624 9.51325 201.228 8.73749 206.386 8.73749C211.544 8.73749 216.124 9.51325 220.125 11.0648C224.175 12.6163 227.381 15.0163 229.743 18.2648C232.105 21.5132 233.286 25.586 233.286 30.4829V39.3557ZM199.01 40.7375C199.01 42.7254 199.661 44.2526 200.963 45.3193C202.312 46.386 204.12 46.9193 206.386 46.9193C208.652 46.9193 210.436 46.386 211.737 45.3193C213.087 44.2042 213.762 42.6526 213.762 40.6648V29.1739C213.762 27.186 213.087 25.6587 211.737 24.592C210.436 23.4769 208.652 22.9193 206.386 22.9193C204.12 22.9193 202.312 23.4526 200.963 24.5193C199.661 25.586 199.01 27.1132 199.01 29.1011V40.7375Z" fill="#0F172A"/>
<path d="M262.616 40.7375C262.616 42.7254 263.267 44.2526 264.569 45.3193C265.919 46.386 267.726 46.9193 269.992 46.9193C272.017 46.9193 273.511 46.5799 274.476 45.9011C275.44 45.2223 276.259 44.2042 276.934 42.8466C277.561 41.586 278.405 40.9557 279.465 40.9557H295.084C295.518 40.9557 295.88 41.1254 296.169 41.4648C296.507 41.7557 296.675 42.1193 296.675 42.5557C296.675 45.5132 295.687 48.4223 293.711 51.2829C291.734 54.0951 288.721 56.4466 284.672 58.3375C280.67 60.1799 275.777 61.1011 269.992 61.1011C264.834 61.1011 260.23 60.3254 256.181 58.7739C252.179 57.1739 248.998 54.7496 246.636 51.5011C244.273 48.2042 243.092 44.1072 243.092 39.2102V30.6284C243.092 25.7314 244.273 21.6587 246.636 18.4102C248.998 15.1132 252.179 12.689 256.181 11.1375C260.23 9.53749 264.834 8.73749 269.992 8.73749C275.777 8.73749 280.67 9.68294 284.672 11.5739C288.721 13.4163 291.734 15.7678 293.711 18.6284C295.687 21.4405 296.675 24.3254 296.675 27.2829C296.675 27.7193 296.507 28.1072 296.169 28.4466C295.88 28.7375 295.518 28.8829 295.084 28.8829H279.465C278.405 28.8829 277.561 28.2526 276.934 26.992C276.259 25.6345 275.44 24.6163 274.476 23.9375C273.511 23.2587 272.017 22.9193 269.992 22.9193C267.726 22.9193 265.919 23.4526 264.569 24.5193C263.267 25.586 262.616 27.1132 262.616 29.1011V40.7375Z" fill="#0F172A"/>
<path d="M362.017 57.8284C362.21 58.1193 362.306 58.4345 362.306 58.7739C362.306 59.2102 362.138 59.5981 361.8 59.9375C361.511 60.2284 361.149 60.3739 360.715 60.3739H342.059C340.95 60.3739 340.082 59.986 339.456 59.2102L326.873 43.5739V58.4102C326.873 58.9436 326.681 59.4042 326.295 59.792C325.909 60.1799 325.451 60.3739 324.921 60.3739H310.025C309.495 60.3739 309.036 60.1799 308.651 59.792C308.265 59.4042 308.072 58.9436 308.072 58.4102V11.4284C308.072 10.8951 308.265 10.4345 308.651 10.0466C309.036 9.6587 309.495 9.46476 310.025 9.46476H324.921C325.451 9.46476 325.909 9.6587 326.295 10.0466C326.681 10.4345 326.873 10.8951 326.873 11.4284V25.1011L338.299 10.7011C339.022 9.87688 339.914 9.46476 340.974 9.46476H358.401C358.835 9.46476 359.197 9.63446 359.486 9.97385C359.824 10.2648 359.992 10.6284 359.992 11.0648C359.992 11.4526 359.872 11.792 359.631 12.0829L342.493 33.1011L362.017 57.8284Z" fill="#0F172A"/>
<path d="M418.464 46.192C418.995 46.192 419.453 46.386 419.838 46.7738C420.224 47.1617 420.417 47.6223 420.417 48.1557V58.4102C420.417 58.9436 420.224 59.4042 419.838 59.792C419.453 60.1799 418.995 60.3739 418.464 60.3739H372.763C372.233 60.3739 371.775 60.1799 371.389 59.792C371.004 59.4042 370.811 58.9436 370.811 58.4102V11.4284C370.811 10.8951 371.004 10.4345 371.389 10.0466C371.775 9.6587 372.233 9.46476 372.763 9.46476H417.741C418.272 9.46476 418.729 9.6587 419.115 10.0466C419.501 10.4345 419.694 10.8951 419.694 11.4284V21.6829C419.694 22.2163 419.501 22.6769 419.115 23.0648C418.729 23.4526 418.272 23.6466 417.741 23.6466H389.612V28.2284H413.764C414.294 28.2284 414.752 28.4223 415.138 28.8102C415.524 29.1981 415.716 29.6587 415.716 30.192V39.6466C415.716 40.1799 415.524 40.6405 415.138 41.0284C414.752 41.4163 414.294 41.6102 413.764 41.6102H389.612V46.192H418.464Z" fill="#0F172A"/>
<path d="M482.866 9.46476C483.396 9.46476 483.854 9.6587 484.24 10.0466C484.626 10.4345 484.818 10.8951 484.818 11.4284V23.1375C484.818 23.6708 484.626 24.1314 484.24 24.5193C483.854 24.9072 483.396 25.1011 482.866 25.1011H467.319V58.4102C467.319 58.9436 467.126 59.4042 466.74 59.792C466.355 60.1799 465.897 60.3739 465.367 60.3739H450.47C449.94 60.3739 449.482 60.1799 449.096 59.792C448.711 59.4042 448.518 58.9436 448.518 58.4102V25.1011H432.971C432.441 25.1011 431.983 24.9072 431.597 24.5193C431.211 24.1314 431.018 23.6708 431.018 23.1375V11.4284C431.018 10.8951 431.211 10.4345 431.597 10.0466C431.983 9.6587 432.441 9.46476 432.971 9.46476H482.866Z" fill="#0F172A"/>
<path d="M121.818 96.7375V71.2829H132.34C133.786 71.2829 135.088 71.6345 136.245 72.3375C137.426 73.0405 138.354 73.9981 139.029 75.2102C139.728 76.4223 140.077 77.7799 140.077 79.2829C140.077 80.786 139.728 82.1557 139.029 83.392C138.354 84.6041 137.426 85.5739 136.245 86.3011C135.088 87.0284 133.786 87.392 132.34 87.392H126.483V96.7375H121.818ZM126.483 83.0648H132.014C132.641 83.0648 133.195 82.8951 133.678 82.5557C134.184 82.2163 134.581 81.7678 134.871 81.2102C135.184 80.6284 135.341 79.9981 135.341 79.3193C135.341 78.6163 135.184 77.986 134.871 77.4284C134.581 76.8708 134.184 76.4345 133.678 76.1193C133.195 75.8042 132.641 75.6466 132.014 75.6466H126.483V83.0648Z" fill="#0F172A"/>
<path d="M233.633 96.7375V71.2829H238.298V92.3739H249.976V96.7375H233.633Z" fill="#0F172A"/>
<path d="M341.217 96.7375L351.087 71.2829H355.462L365.261 96.7375H360.416L354.956 82.192C354.86 81.9254 354.703 81.4769 354.486 80.8466C354.293 80.2163 354.076 79.5254 353.835 78.7739C353.594 78.0223 353.365 77.3314 353.148 76.7011C352.956 76.0708 352.823 75.5981 352.751 75.2829L353.655 75.2466C353.51 75.7314 353.341 76.289 353.148 76.9193C352.956 77.5254 352.751 78.1557 352.534 78.8102C352.317 79.4648 352.1 80.0951 351.883 80.7011C351.666 81.3072 351.473 81.8526 351.304 82.3375L345.881 96.7375H341.217ZM345.7 90.8829L347.291 86.8102H358.825L360.596 90.8829H345.7Z" fill="#0F172A"/>
<path d="M457.864 96.7375V71.2829H462.058L476.81 91.2102L476.014 91.392C475.845 90.2769 475.701 89.089 475.58 87.8284C475.484 86.5678 475.412 85.1981 475.363 83.7193C475.315 82.2405 475.291 80.6284 475.291 78.8829V71.2829H479.919V96.7375H475.653L460.901 77.1375L461.769 76.8829C461.937 78.6042 462.07 80.0223 462.166 81.1375C462.263 82.2284 462.335 83.1254 462.383 83.8284C462.432 84.5314 462.456 85.1132 462.456 85.5739C462.48 86.0345 462.492 86.4708 462.492 86.8829V96.7375H457.864Z" fill="#0F172A"/>
</svg>
